<svg width="260" height="47" viewBox="0 0 260 47" fill="none" xmlns="http://www.w3.org/2000/svg">
<path d="M32.7495 0H14.1061C6.31189 0 0 6.32471 0 14.1339V32.8661C0 40.6753 6.31189 47 14.1061 47H44.2405C45.7198 47 46.8556 45.8149 46.8556 44.3304V14.1339C46.8556 6.32471 40.5437 0 32.7495 0Z" fill="#6366F1"/>
<path d="M18.8635 36.626H16.09C14.2904 36.626 12.8341 35.1654 12.8341 33.3675V29.9729C12.8341 28.8836 11.9529 28.0017 10.8645 28.0017H8.91033C7.6859 28.0017 6.69336 27.0084 6.69336 25.783V24.1955C6.69336 22.9701 7.6859 21.9768 8.91033 21.9768H16.5136C17.8122 21.9768 18.8635 23.0289 18.8635 24.3255V36.626Z" fill="#0C1322"/>
<path d="M40.1618 17.1848C40.1618 18.396 39.1803 19.3889 37.983 19.3889H30.1278V36.6255H24.4878C22.7527 36.6255 21.3488 35.2022 21.3488 33.4499V23.622C21.3488 21.2826 19.4738 19.3889 17.1644 19.3889H13.1319C11.9346 19.3889 10.9531 18.396 10.9531 17.1848V12.5829C10.9531 11.3655 11.9286 10.3787 13.1319 10.3787H37.983C39.1864 10.3787 40.1618 11.3655 40.1618 12.5829V17.1848Z" fill="white"/>
<path d="M66.8016 17.949C67.9869 17.949 69.1252 18.0434 70.0752 18.2345C71.0723 18.4255 71.8767 18.6143 72.5422 18.8525C73.2054 19.0908 73.5863 19.2324 73.7275 19.329L71.3568 23.8511C71.1193 23.7073 70.6443 23.4713 69.9811 23.1836C69.3178 22.8981 68.5583 22.7543 67.7516 22.7543C67.3237 22.7543 66.945 22.8015 66.6604 22.8487C66.3759 22.9431 66.2347 23.0869 66.2347 23.278C66.2347 23.469 66.4252 23.6578 66.7568 23.8017C67.0884 23.9455 67.6575 24.0871 68.4642 24.1815C69.1767 24.3253 69.9811 24.5613 70.8348 24.8962C71.6885 25.2289 72.401 25.7526 72.9701 26.4201C73.5863 27.1348 73.8709 28.0383 73.8709 29.2273C73.8709 30.5129 73.5863 31.5131 73.0172 32.3222C72.448 33.1313 71.7355 33.7022 70.8348 34.1315C69.934 34.5608 68.984 34.8462 67.9891 34.9878C66.992 35.1316 65.9972 35.226 65.0964 35.226C63.6736 35.226 62.4883 35.0822 61.4912 34.8462C60.4941 34.6079 59.6897 34.3225 59.1206 34.0371C58.5515 33.7516 58.1235 33.5134 57.9353 33.3695L60.2589 28.3238C60.5905 28.6092 61.1596 28.8946 61.9192 29.2767C62.6788 29.6566 63.4854 29.8004 64.2898 29.8004C64.953 29.8004 65.4281 29.7532 65.7597 29.6566C66.0442 29.5622 66.2347 29.4183 66.2347 29.2273C66.2347 29.0834 66.1406 28.9418 65.9972 28.8474C65.8538 28.753 65.6185 28.6564 65.2847 28.562C64.953 28.4676 64.5721 28.371 64.0523 28.2766C63.5773 28.1822 63.0552 28.0383 62.4861 27.8001C61.917 27.5618 61.3478 27.2764 60.7787 26.8966C60.2096 26.5167 59.7816 25.993 59.4029 25.3255C59.0243 24.7074 58.8809 23.8983 58.8809 22.9925C58.8809 21.8036 59.2595 20.8506 60.0191 20.0887C60.7787 19.3268 61.7736 18.7559 63.0082 18.4232C64.1464 18.1378 65.4281 17.9468 66.8038 17.9468L66.8016 17.949Z" fill="#0C1322"/>
<path d="M100.86 17.9534C102.092 17.9534 103.23 18.1917 104.227 18.7154C105.224 19.1918 106.029 20.001 106.598 21.0483C107.167 22.0957 107.499 23.4757 107.499 25.1411V34.8034H99.8154V26.1885C99.8154 25.4738 99.6742 24.8557 99.4367 24.2848C99.1992 23.7139 98.6771 23.4285 97.8234 23.4285C97.2543 23.4285 96.8263 23.5723 96.4947 23.8578C96.1631 24.1432 95.9256 24.4759 95.7351 24.9051C95.5917 25.3344 95.4976 25.7615 95.4976 26.2379V34.8057H88.3835V26.1907C88.3835 25.476 88.2894 24.8579 88.0519 24.2871C87.8144 23.7162 87.2923 23.4307 86.4386 23.4307C85.8695 23.4307 85.4415 23.5746 85.0629 23.86C84.7312 24.1455 84.4467 24.4781 84.3033 24.9074C84.1621 25.3367 84.0658 25.7637 84.0658 26.2402V34.8079H76.3333V18.4299H84.0658V20.619C84.2562 20.1898 84.6349 19.8099 85.204 19.3806C85.7732 18.9513 86.4857 18.6187 87.2901 18.3333C88.0967 18.0478 88.9504 17.904 89.8041 17.904C90.7519 17.904 91.5585 17.9984 92.1747 18.1894C92.8379 18.3805 93.36 18.7131 93.788 19.0929C94.2137 19.5222 94.5946 19.9965 94.9262 20.5696C95.1167 20.1403 95.4483 19.7605 96.0174 19.3312C96.5866 18.9019 97.2991 18.5693 98.1035 18.2838C99.0042 18.0928 99.905 17.9512 100.855 17.9512L100.86 17.9534Z" fill="#0C1322"/>
<path d="M122.442 34.8012V32.5155C122.298 32.7537 122.014 33.0863 121.541 33.5628C121.066 33.9921 120.497 34.4192 119.739 34.7518C119.027 35.1316 118.126 35.2755 117.178 35.2755C115.565 35.2755 114.142 34.8462 112.957 34.0371C111.772 33.2279 110.871 32.1334 110.252 30.8478C109.636 29.515 109.305 28.135 109.305 26.6111C109.305 25.0873 109.636 23.7073 110.252 22.3745C110.869 21.0417 111.769 19.9943 112.957 19.1852C114.142 18.3761 115.518 17.9468 117.178 17.9468C118.126 17.9468 118.933 18.0906 119.598 18.3266C120.311 18.5648 120.88 18.8975 121.306 19.2796C121.734 19.6594 122.112 19.9943 122.35 20.3269V18.4232H130.129V34.7967H122.446L122.442 34.8012ZM117.08 26.6134C117.08 27.0427 117.174 27.4697 117.411 27.899C117.649 28.2788 117.933 28.6137 118.359 28.8519C118.738 29.0902 119.213 29.2318 119.735 29.2318C120.257 29.2318 120.732 29.0879 121.111 28.8519C121.489 28.6137 121.823 28.2811 122.059 27.899C122.296 27.5191 122.39 27.0899 122.39 26.6134C122.39 26.1841 122.296 25.757 122.059 25.3278C121.821 24.9479 121.536 24.613 121.111 24.3748C120.732 24.1366 120.257 23.995 119.735 23.995C119.213 23.995 118.738 24.1388 118.359 24.3748C117.981 24.613 117.647 24.9457 117.411 25.3278C117.174 25.7076 117.08 26.1369 117.08 26.6134Z" fill="#0C1322"/>
<path d="M140.418 34.8031H132.592V18.4296H140.418V20.7625H140.324C140.467 20.4771 140.752 20.0973 141.131 19.668C141.509 19.2387 142.128 18.8116 142.838 18.479C143.551 18.1464 144.498 17.9553 145.59 17.9553C146.349 17.9553 147.059 18.0992 147.725 18.3352C148.388 18.5734 148.91 18.8116 149.242 19.0499L146.253 25.3813C146.062 25.0958 145.778 24.8576 145.256 24.5721C144.781 24.2867 144.165 24.1429 143.454 24.1429C142.695 24.1429 142.078 24.2867 141.603 24.6193C141.176 24.952 140.844 25.3341 140.656 25.7611C140.465 26.2376 140.371 26.6646 140.371 27.0939V34.8053H140.418V34.8031Z" fill="#0C1322"/>
<path d="M149.099 18.4282H151.566V11.717H159.298V18.4282H162.572V24.8068H159.298V26.9016C159.298 27.378 159.345 27.8051 159.487 28.2344C159.583 28.6142 159.915 28.8524 160.387 28.8524C160.672 28.8524 160.909 28.8052 161.147 28.6614C161.384 28.5176 161.526 28.4232 161.573 28.376L164.136 33.8982C164.04 33.9926 163.708 34.1365 163.092 34.3747C162.523 34.6129 161.812 34.804 160.909 34.9928C160.009 35.1838 159.059 35.2782 158.017 35.2782C156.119 35.2782 154.602 34.7545 153.414 33.7544C152.229 32.7542 151.613 31.1832 151.613 29.0907V24.8068H149.146V18.4282H149.099Z" fill="#0C1322"/>
<path d="M173.13 34.9779C172.095 34.9779 171.246 34.7284 170.681 34.2811C170.069 33.8338 169.646 33.1888 169.408 32.3932C169.173 31.5975 169.032 30.703 169.032 29.7096V20.3642H166.677C166.489 20.3642 166.298 20.3148 166.206 20.1664C166.065 20.0181 166.018 19.8675 166.018 19.6697V19.2224C166.018 19.0247 166.065 18.8246 166.206 18.7257C166.347 18.6268 166.489 18.5279 166.677 18.5279H169.032V13.2102C169.032 13.0124 169.079 12.8124 169.22 12.7135C169.361 12.5652 169.502 12.5157 169.691 12.5157H170.208C170.396 12.5157 170.585 12.5652 170.679 12.7135C170.82 12.8618 170.867 13.0124 170.867 13.2102V18.5279H174.589C174.777 18.5279 174.965 18.5774 175.059 18.7257C175.2 18.8741 175.247 19.0247 175.247 19.2224V19.6697C175.247 19.8675 175.2 20.0675 175.059 20.1664C174.918 20.3148 174.777 20.3642 174.589 20.3642H170.867V29.6107C170.867 30.7547 171.055 31.5998 171.384 32.2448C171.714 32.8921 172.373 33.1888 173.269 33.1888H174.871C175.059 33.1888 175.25 33.2382 175.341 33.3866C175.483 33.5349 175.53 33.6855 175.53 33.8833V34.3306C175.53 34.5283 175.483 34.7284 175.341 34.8273C175.2 34.9262 175.059 35.0273 174.871 35.0273H173.128V34.9779H173.13Z" fill="#6366F1"/>
<path d="M182.834 35.2792C181.891 35.2792 180.997 35.0814 180.195 34.6341C179.395 34.1869 178.736 33.6407 178.216 32.944C177.699 32.2472 177.463 31.4538 177.463 30.557C177.463 29.1164 178.028 27.9723 179.113 27.0778C180.195 26.2327 181.658 25.6371 183.399 25.3876L188.158 24.6909V23.5986C188.158 22.4546 187.826 21.6095 187.17 20.9644C186.511 20.3171 185.474 20.0205 184.06 20.0205C183.022 20.0205 182.175 20.2183 181.514 20.6678C180.856 21.115 180.432 21.6612 180.195 22.3579C180.101 22.6569 179.912 22.8546 179.63 22.8546H179.16C178.924 22.8546 178.736 22.8052 178.642 22.6546C178.548 22.5063 178.501 22.3557 178.501 22.1579C178.501 21.859 178.595 21.5128 178.83 21.0633C179.018 20.6161 179.35 20.1688 179.821 19.771C180.244 19.3237 180.809 18.9753 181.517 18.6764C182.223 18.3775 183.072 18.2292 184.062 18.2292C185.241 18.2292 186.229 18.3775 186.982 18.7259C187.737 19.0742 188.348 19.5215 188.772 20.0182C189.195 20.5644 189.527 21.1622 189.666 21.8073C189.807 22.4546 189.948 23.0996 189.948 23.7469V34.2858C189.948 34.4835 189.901 34.6836 189.76 34.7825C189.619 34.8814 189.478 34.9802 189.29 34.9802H188.772C188.584 34.9802 188.396 34.9308 188.301 34.7825C188.16 34.6341 188.113 34.4835 188.113 34.2858V32.7956C187.878 33.1934 187.549 33.5418 187.078 33.9396C186.608 34.3374 186.088 34.6364 185.382 34.8836C184.676 35.1331 183.874 35.2814 182.836 35.2814L182.834 35.2792ZM183.164 33.4384C184.107 33.4384 184.907 33.2406 185.709 32.7934C186.464 32.3956 187.076 31.6988 187.546 30.8537C188.017 29.9592 188.205 28.8646 188.205 27.5228V26.48L184.342 27.0261C182.693 27.2756 181.47 27.6712 180.62 28.2196C179.773 28.7657 179.35 29.5119 179.35 30.357C179.35 31.0538 179.538 31.6494 179.915 32.0472C180.291 32.4944 180.762 32.8428 181.373 33.0406C181.938 33.3395 182.552 33.4384 183.164 33.4384Z" fill="#6366F1"/>
<path d="M195.46 34.9805C195.272 34.9805 195.082 34.931 194.988 34.7827C194.893 34.6343 194.799 34.4837 194.799 34.286V13.1589C194.799 12.9611 194.846 12.761 194.988 12.6622C195.129 12.5138 195.27 12.4644 195.46 12.4644H195.978C196.166 12.4644 196.354 12.5138 196.448 12.6622C196.59 12.8105 196.637 12.9611 196.637 13.1589V34.2837C196.637 34.4815 196.59 34.6815 196.448 34.7804C196.307 34.9288 196.166 34.9782 195.978 34.9782H195.46V34.9805Z" fill="#6366F1"/>
<path d="M202.196 34.9805C202.008 34.9805 201.819 34.931 201.725 34.7827C201.584 34.6343 201.537 34.4837 201.537 34.286V13.1589C201.537 12.9611 201.582 12.761 201.725 12.6622C201.866 12.5138 202.008 12.4644 202.196 12.4644H202.716C202.904 12.4644 203.092 12.5138 203.186 12.6622C203.327 12.8105 203.374 12.9611 203.374 13.1589V24.3922L210.063 19.025C210.345 18.7755 210.536 18.6272 210.675 18.5777C210.816 18.5283 211.006 18.4788 211.333 18.4788H211.898C212.086 18.4788 212.23 18.5283 212.324 18.6766C212.418 18.7755 212.512 18.9261 212.512 19.1239C212.512 19.2228 212.465 19.3217 212.418 19.4228C212.373 19.5217 212.277 19.6723 212.088 19.7712L204.504 25.8846L212.841 33.7375C213.124 33.987 213.218 34.1848 213.218 34.3848C213.218 34.5849 213.171 34.7332 213.029 34.8321C212.935 34.931 212.794 35.0299 212.606 35.0299H212.135C211.853 35.0299 211.618 34.9805 211.477 34.931C211.336 34.8816 211.147 34.7332 210.865 34.4837L203.327 27.4264V34.3354C203.327 34.5332 203.28 34.7332 203.139 34.8321C202.998 34.931 202.857 35.0299 202.669 35.0299H202.196V34.9805Z" fill="#6366F1"/>
<path d="M220.854 35.2792C219.816 35.2792 218.922 35.1308 218.167 34.8319C217.412 34.533 216.8 34.1869 216.33 33.789C215.859 33.3912 215.483 32.9934 215.248 32.5461C215.012 32.1483 214.871 31.8494 214.871 31.6022C214.871 31.3549 214.918 31.2044 215.059 31.056C215.2 30.9571 215.391 30.856 215.53 30.856H216.003C216.144 30.856 216.238 30.856 216.332 30.9054C216.426 30.9549 216.52 31.0538 216.664 31.2538C216.946 31.6022 217.228 31.9505 217.558 32.2967C217.889 32.645 218.313 32.8923 218.877 33.0923C219.442 33.2923 220.056 33.3912 220.856 33.3912C222.082 33.3912 223.07 33.1418 223.825 32.645C224.625 32.1483 225.003 31.4516 225.003 30.5076C225.003 29.912 224.862 29.4647 224.533 29.0669C224.201 28.7185 223.684 28.3702 222.978 28.1229C222.223 27.824 221.235 27.5768 219.962 27.2779C218.689 26.9789 217.748 26.5811 217.042 26.1339C216.384 25.6866 215.911 25.1899 215.675 24.592C215.44 23.9964 215.299 23.3986 215.299 22.7041C215.299 21.9579 215.487 21.2634 215.911 20.5172C216.334 19.8204 216.899 19.2248 217.701 18.7776C218.503 18.3303 219.491 18.0808 220.67 18.0808C221.658 18.0808 222.507 18.2292 223.166 18.4787C223.872 18.7776 224.439 19.0743 224.862 19.4721C225.286 19.8699 225.617 20.2677 225.85 20.6161C226.086 20.9645 226.182 21.3128 226.182 21.5106C226.182 21.7084 226.135 21.9084 225.994 22.0073C225.853 22.1557 225.711 22.2051 225.523 22.2051H225.053C224.911 22.2051 224.77 22.1557 224.674 22.1062C224.58 22.0568 224.486 21.9084 224.392 21.8073C224.203 21.4589 223.966 21.16 223.686 20.8633C223.404 20.5644 223.027 20.3172 222.554 20.1666C222.084 19.9688 221.472 19.9171 220.623 19.9171C219.397 19.9171 218.55 20.1666 217.939 20.7127C217.372 21.2094 217.042 21.9062 217.042 22.7018C217.042 23.1491 217.183 23.5964 217.419 23.9447C217.654 24.2931 218.125 24.5898 218.786 24.8887C219.447 25.1876 220.388 25.4843 221.658 25.7832C222.931 26.0822 223.966 26.4283 224.674 26.8778C225.429 27.3251 225.947 27.8218 226.229 28.4196C226.558 29.0152 226.7 29.712 226.7 30.5076C226.7 31.3527 226.464 32.1483 226.041 32.8428C225.57 33.5396 224.909 34.1352 224.015 34.5824C223.121 35.0297 222.178 35.2792 220.86 35.2792H220.854Z" fill="#6366F1"/>
<path d="M231.044 34.6921C230.865 34.6921 230.685 34.6474 230.596 34.5133C230.462 34.3791 230.417 34.243 230.417 34.0641V32.6698C230.417 32.491 230.462 32.3101 230.596 32.1759C230.73 32.0418 230.865 31.9951 231.044 31.9951H232.434C232.613 31.9951 232.792 32.0398 232.926 32.1759C233.061 32.3101 233.106 32.4463 233.106 32.6698V34.0641C233.106 34.243 233.061 34.4238 232.926 34.5133C232.792 34.6474 232.658 34.6921 232.434 34.6921H231.044Z" fill="#0C1322"/>
<path d="M241.864 35.2785C240.782 35.2785 239.839 35.0807 238.945 34.6334C238.096 34.1862 237.437 33.5906 236.919 32.8938C236.402 32.1476 236.164 31.3025 236.164 30.408C236.164 28.9156 236.729 27.7244 237.907 26.8299C239.086 25.9354 240.594 25.3398 242.525 25.0408L246.294 24.4452V23.998C246.294 23.2518 246.153 22.6562 245.824 22.2584C245.541 21.8605 244.977 21.6627 244.174 21.6627C243.61 21.6627 243.139 21.7616 242.808 22.0111C242.478 22.2606 242.196 22.5573 241.961 22.9551C241.772 23.254 241.535 23.3529 241.206 23.3529H237.86C237.625 23.3529 237.484 23.3035 237.343 23.1529C237.201 23.0045 237.154 22.854 237.201 22.6562C237.201 22.2584 237.343 21.8605 237.625 21.3638C237.907 20.8671 238.331 20.3704 238.851 19.8737C239.415 19.377 240.123 18.9792 241.017 18.6802C241.914 18.3813 242.949 18.1835 244.221 18.1835C245.494 18.1835 246.623 18.3319 247.517 18.6802C248.461 18.9792 249.214 19.4264 249.781 20.022C250.345 20.6176 250.769 21.2649 251.051 22.0606C251.333 22.8562 251.477 23.7013 251.477 24.5958V34.2379C251.477 34.4356 251.383 34.6357 251.241 34.784C251.1 34.9324 250.912 35.0335 250.724 35.0335H247.237C247.002 35.0335 246.814 34.9346 246.72 34.784C246.579 34.6357 246.532 34.4356 246.532 34.2379V33.1433C246.249 33.5411 245.92 33.9389 245.496 34.2379C245.071 34.5862 244.553 34.8335 243.941 35.0335C243.33 35.1818 242.622 35.283 241.869 35.283L241.864 35.2785ZM243.276 31.6981C243.841 31.6981 244.36 31.5498 244.831 31.3003C245.301 31.0508 245.678 30.6036 245.962 30.0574C246.245 29.5112 246.386 28.8145 246.386 27.9694V27.4727L243.841 27.9694C242.899 28.1177 242.191 28.4167 241.768 28.765C241.344 29.1134 241.109 29.5112 241.109 30.0079C241.109 30.3563 241.203 30.6552 241.392 30.9519C241.58 31.2014 241.862 31.3992 242.191 31.5475C242.523 31.597 242.897 31.6959 243.274 31.6959L243.276 31.6981Z" fill="#0C1322"/>
<path d="M255.62 16.0908C255.384 16.0908 255.194 16.0413 255.1 15.893C254.959 15.7447 254.912 15.5446 254.912 15.3468V12.5127C254.912 12.3149 254.959 12.1148 255.1 11.9665C255.241 11.8182 255.431 11.717 255.62 11.717H259.245C259.433 11.717 259.624 11.8159 259.765 11.9665C259.906 12.1148 260 12.3149 260 12.5127V15.3468C260 15.5963 259.906 15.7941 259.765 15.893C259.624 16.0413 259.433 16.0908 259.245 16.0908H255.62ZM255.667 34.9793C255.431 34.9793 255.243 34.8804 255.149 34.7298C255.008 34.5815 254.961 34.3814 254.961 34.1837V19.2711C254.961 19.0216 255.008 18.8733 255.149 18.7249C255.29 18.5766 255.481 18.5271 255.667 18.5271H259.2C259.436 18.5271 259.624 18.5766 259.718 18.7249C259.859 18.8733 259.906 19.0733 259.906 19.2711V34.1837C259.906 34.3814 259.859 34.5815 259.718 34.7298C259.577 34.8782 259.386 34.9793 259.2 34.9793H255.667Z" fill="#0C1322"/>
</svg>
